<mxfile host="app.diagrams.net" agent="Mozilla/5.0 (Windows NT 10.0; Win64; x64) AppleWebKit/537.36 (KHTML, like Gecko) Chrome/128.0.0.0 Safari/537.36" version="24.7.10">
  <diagram name="Page-1" id="e7e014a7-5840-1c2e-5031-d8a46d1fe8dd">
    <mxGraphModel dx="1474" dy="716" grid="1" gridSize="10" guides="1" tooltips="1" connect="1" arrows="1" fold="1" page="1" pageScale="1" pageWidth="1169" pageHeight="826" background="none" math="0" shadow="0">
      <root>
        <mxCell id="0" />
        <mxCell id="1" parent="0" />
        <mxCell id="kZQ03gNKZHDd4sTlV5Zk-1" value="Khách hàng" style="swimlane;whiteSpace=wrap" parent="1" vertex="1">
          <mxGeometry x="60" y="90" width="280" height="1070" as="geometry" />
        </mxCell>
        <mxCell id="kZQ03gNKZHDd4sTlV5Zk-2" value="" style="ellipse;shape=startState;fillColor=#000000;strokeColor=#ff0000;" parent="kZQ03gNKZHDd4sTlV5Zk-1" vertex="1">
          <mxGeometry x="100" y="40" width="30" height="30" as="geometry" />
        </mxCell>
        <mxCell id="kZQ03gNKZHDd4sTlV5Zk-3" value="" style="edgeStyle=elbowEdgeStyle;elbow=horizontal;verticalAlign=bottom;endArrow=open;endSize=8;strokeColor=#FF0000;endFill=1;rounded=0" parent="kZQ03gNKZHDd4sTlV5Zk-1" source="kZQ03gNKZHDd4sTlV5Zk-2" edge="1">
          <mxGeometry x="100" y="40" as="geometry">
            <mxPoint x="115.5" y="110" as="targetPoint" />
          </mxGeometry>
        </mxCell>
        <mxCell id="kZQ03gNKZHDd4sTlV5Zk-4" value="Vào giao diện người dùng" style="rounded=1;whiteSpace=wrap;html=1;arcSize=40;fontColor=#000000;fillColor=#ffffc0;strokeColor=#ff0000;" parent="kZQ03gNKZHDd4sTlV5Zk-1" vertex="1">
          <mxGeometry x="60" y="112" width="120" height="40" as="geometry" />
        </mxCell>
        <mxCell id="kZQ03gNKZHDd4sTlV5Zk-5" value="Nhập thông tin đăng nhập" style="rounded=1;whiteSpace=wrap;html=1;arcSize=40;fontColor=#000000;fillColor=#ffffc0;strokeColor=#ff0000;" parent="kZQ03gNKZHDd4sTlV5Zk-1" vertex="1">
          <mxGeometry x="52.75" y="300" width="120" height="40" as="geometry" />
        </mxCell>
        <mxCell id="kZQ03gNKZHDd4sTlV5Zk-7" value="" style="shape=line;html=1;strokeWidth=6;strokeColor=#ff0000;" parent="kZQ03gNKZHDd4sTlV5Zk-1" vertex="1">
          <mxGeometry x="170" y="380" width="60" height="10" as="geometry" />
        </mxCell>
        <mxCell id="kZQ03gNKZHDd4sTlV5Zk-8" value="" style="edgeStyle=orthogonalEdgeStyle;html=1;verticalAlign=bottom;endArrow=open;endSize=8;strokeColor=#ff0000;rounded=0;exitX=0.5;exitY=1;exitDx=0;exitDy=0;entryX=0.25;entryY=0.5;entryDx=0;entryDy=0;entryPerimeter=0;" parent="kZQ03gNKZHDd4sTlV5Zk-1" source="kZQ03gNKZHDd4sTlV5Zk-5" target="kZQ03gNKZHDd4sTlV5Zk-7" edge="1">
          <mxGeometry relative="1" as="geometry">
            <mxPoint x="330" y="332" as="targetPoint" />
            <Array as="points" />
          </mxGeometry>
        </mxCell>
        <mxCell id="kZQ03gNKZHDd4sTlV5Zk-13" value="Có tài khoản không?" style="rhombus;whiteSpace=wrap;html=1;fontColor=#000000;fillColor=#ffffc0;strokeColor=#ff0000;" parent="kZQ03gNKZHDd4sTlV5Zk-1" vertex="1">
          <mxGeometry x="67.25" y="198" width="105.5" height="62" as="geometry" />
        </mxCell>
        <mxCell id="kZQ03gNKZHDd4sTlV5Zk-15" value="Có tài khoản" style="edgeStyle=orthogonalEdgeStyle;html=1;align=left;verticalAlign=top;endArrow=open;endSize=8;strokeColor=#ff0000;rounded=0;exitX=0.5;exitY=1;exitDx=0;exitDy=0;" parent="kZQ03gNKZHDd4sTlV5Zk-1" source="kZQ03gNKZHDd4sTlV5Zk-13" target="kZQ03gNKZHDd4sTlV5Zk-5" edge="1">
          <mxGeometry x="-1" relative="1" as="geometry">
            <mxPoint x="415.5" y="322" as="targetPoint" />
            <mxPoint x="388.5" y="172" as="sourcePoint" />
            <Array as="points">
              <mxPoint x="120" y="260" />
            </Array>
          </mxGeometry>
        </mxCell>
        <mxCell id="kZQ03gNKZHDd4sTlV5Zk-14" value="" style="edgeStyle=orthogonalEdgeStyle;html=1;verticalAlign=bottom;endArrow=open;endSize=8;strokeColor=#ff0000;rounded=0;" parent="kZQ03gNKZHDd4sTlV5Zk-1" source="kZQ03gNKZHDd4sTlV5Zk-4" target="kZQ03gNKZHDd4sTlV5Zk-13" edge="1">
          <mxGeometry relative="1" as="geometry">
            <mxPoint x="335.5000000000002" y="132" as="targetPoint" />
          </mxGeometry>
        </mxCell>
        <mxCell id="kZQ03gNKZHDd4sTlV5Zk-16" value="Không có tài khoản" style="edgeStyle=orthogonalEdgeStyle;html=1;align=left;verticalAlign=bottom;endArrow=open;endSize=8;strokeColor=#ff0000;rounded=0;entryX=-0.008;entryY=0.512;entryDx=0;entryDy=0;exitX=1;exitY=0.5;exitDx=0;exitDy=0;entryPerimeter=0;" parent="kZQ03gNKZHDd4sTlV5Zk-1" source="kZQ03gNKZHDd4sTlV5Zk-13" target="kZQ03gNKZHDd4sTlV5Zk-10" edge="1">
          <mxGeometry x="-1" relative="1" as="geometry">
            <mxPoint x="536" y="250" as="targetPoint" />
            <mxPoint as="offset" />
            <Array as="points">
              <mxPoint x="180" y="229" />
              <mxPoint x="180" y="230" />
              <mxPoint x="347" y="230" />
            </Array>
          </mxGeometry>
        </mxCell>
        <mxCell id="kZQ03gNKZHDd4sTlV5Zk-26" value="" style="edgeStyle=orthogonalEdgeStyle;html=1;verticalAlign=bottom;endArrow=open;endSize=8;strokeColor=#ff0000;rounded=0;exitX=0.5;exitY=1;exitDx=0;exitDy=0;" parent="kZQ03gNKZHDd4sTlV5Zk-1" source="kZQ03gNKZHDd4sTlV5Zk-19" edge="1">
          <mxGeometry relative="1" as="geometry">
            <mxPoint x="653" y="500" as="targetPoint" />
            <Array as="points">
              <mxPoint x="653" y="481" />
            </Array>
            <mxPoint x="410" y="481" as="sourcePoint" />
          </mxGeometry>
        </mxCell>
        <mxCell id="kZQ03gNKZHDd4sTlV5Zk-33" value="Thông báo hết phòng" style="rounded=1;whiteSpace=wrap;html=1;arcSize=40;fontColor=#000000;fillColor=#ffffc0;strokeColor=#ff0000;" parent="kZQ03gNKZHDd4sTlV5Zk-1" vertex="1">
          <mxGeometry x="60" y="580" width="120" height="40" as="geometry" />
        </mxCell>
        <mxCell id="kZQ03gNKZHDd4sTlV5Zk-45" value="Nhận hợp đồng" style="rounded=1;whiteSpace=wrap;html=1;arcSize=40;fontColor=#000000;fillColor=#ffffc0;strokeColor=#ff0000;" parent="kZQ03gNKZHDd4sTlV5Zk-1" vertex="1">
          <mxGeometry x="60" y="640" width="120" height="40" as="geometry" />
        </mxCell>
        <mxCell id="kZQ03gNKZHDd4sTlV5Zk-47" value="Gia hạn hợp đồng?" style="rhombus;whiteSpace=wrap;html=1;fontColor=#000000;fillColor=#ffffc0;strokeColor=#ff0000;" parent="kZQ03gNKZHDd4sTlV5Zk-1" vertex="1">
          <mxGeometry x="67.25" y="740" width="105.5" height="62" as="geometry" />
        </mxCell>
        <mxCell id="kZQ03gNKZHDd4sTlV5Zk-49" value="" style="edgeStyle=orthogonalEdgeStyle;html=1;verticalAlign=bottom;endArrow=open;endSize=8;strokeColor=#ff0000;rounded=0;exitX=0.5;exitY=1;exitDx=0;exitDy=0;entryX=0.509;entryY=0.285;entryDx=0;entryDy=0;entryPerimeter=0;" parent="kZQ03gNKZHDd4sTlV5Zk-1" target="kZQ03gNKZHDd4sTlV5Zk-92" edge="1">
          <mxGeometry relative="1" as="geometry">
            <mxPoint x="120" y="850" as="targetPoint" />
            <Array as="points" />
            <mxPoint x="119.94999999999999" y="802" as="sourcePoint" />
          </mxGeometry>
        </mxCell>
        <mxCell id="kZQ03gNKZHDd4sTlV5Zk-50" value="" style="edgeStyle=orthogonalEdgeStyle;html=1;verticalAlign=bottom;endArrow=open;endSize=8;strokeColor=#ff0000;rounded=0;exitX=0.512;exitY=1.011;exitDx=0;exitDy=0;entryX=0.5;entryY=0;entryDx=0;entryDy=0;exitPerimeter=0;" parent="kZQ03gNKZHDd4sTlV5Zk-1" source="kZQ03gNKZHDd4sTlV5Zk-45" target="kZQ03gNKZHDd4sTlV5Zk-47" edge="1">
          <mxGeometry relative="1" as="geometry">
            <mxPoint x="160" y="720" as="targetPoint" />
            <Array as="points">
              <mxPoint x="120" y="680" />
            </Array>
            <mxPoint x="120" y="700" as="sourcePoint" />
          </mxGeometry>
        </mxCell>
        <mxCell id="kZQ03gNKZHDd4sTlV5Zk-52" value="Có" style="text;html=1;align=center;verticalAlign=middle;whiteSpace=wrap;rounded=0;" parent="kZQ03gNKZHDd4sTlV5Zk-1" vertex="1">
          <mxGeometry x="170" y="750" width="60" height="20" as="geometry" />
        </mxCell>
        <mxCell id="kZQ03gNKZHDd4sTlV5Zk-53" value="Không" style="text;html=1;align=center;verticalAlign=middle;whiteSpace=wrap;rounded=0;" parent="kZQ03gNKZHDd4sTlV5Zk-1" vertex="1">
          <mxGeometry x="120" y="802" width="60" height="30" as="geometry" />
        </mxCell>
        <mxCell id="kZQ03gNKZHDd4sTlV5Zk-90" value="" style="ellipse;html=1;shape=endState;fillColor=#000000;strokeColor=#ff0000;" parent="kZQ03gNKZHDd4sTlV5Zk-1" vertex="1">
          <mxGeometry x="105" y="980" width="30" height="30" as="geometry" />
        </mxCell>
        <mxCell id="kZQ03gNKZHDd4sTlV5Zk-92" value="" style="shape=line;html=1;strokeWidth=6;strokeColor=#ff0000;" parent="kZQ03gNKZHDd4sTlV5Zk-1" vertex="1">
          <mxGeometry x="67.25" y="880" width="102.75" height="10" as="geometry" />
        </mxCell>
        <mxCell id="kZQ03gNKZHDd4sTlV5Zk-93" value="" style="edgeStyle=orthogonalEdgeStyle;html=1;verticalAlign=bottom;endArrow=open;endSize=8;strokeColor=#ff0000;rounded=0;exitX=0;exitY=0.5;exitDx=0;exitDy=0;entryX=0.25;entryY=0.5;entryDx=0;entryDy=0;entryPerimeter=0;" parent="kZQ03gNKZHDd4sTlV5Zk-1" source="kZQ03gNKZHDd4sTlV5Zk-33" target="kZQ03gNKZHDd4sTlV5Zk-92" edge="1">
          <mxGeometry relative="1" as="geometry">
            <mxPoint x="90" y="830" as="targetPoint" />
            <Array as="points">
              <mxPoint x="39" y="600" />
              <mxPoint x="39" y="830" />
              <mxPoint x="93" y="830" />
            </Array>
            <mxPoint x="40" y="600" as="sourcePoint" />
          </mxGeometry>
        </mxCell>
        <mxCell id="kZQ03gNKZHDd4sTlV5Zk-12" value="Hệ thống" style="swimlane;whiteSpace=wrap" parent="1" vertex="1">
          <mxGeometry x="340.5" y="90" width="281" height="1070" as="geometry" />
        </mxCell>
        <mxCell id="kZQ03gNKZHDd4sTlV5Zk-10" value="Tạo tài khoản" style="rounded=1;whiteSpace=wrap;html=1;arcSize=40;fontColor=#000000;fillColor=#ffffc0;strokeColor=#ff0000;" parent="kZQ03gNKZHDd4sTlV5Zk-12" vertex="1">
          <mxGeometry x="67.75" y="209" width="120" height="40" as="geometry" />
        </mxCell>
        <mxCell id="kZQ03gNKZHDd4sTlV5Zk-36" value="Lưu thông tin khách hàng" style="rounded=1;whiteSpace=wrap;html=1;arcSize=40;fontColor=#000000;fillColor=#ffffc0;strokeColor=#ff0000;" parent="kZQ03gNKZHDd4sTlV5Zk-12" vertex="1">
          <mxGeometry x="109.5" y="580" width="120" height="40" as="geometry" />
        </mxCell>
        <mxCell id="kZQ03gNKZHDd4sTlV5Zk-37" value="Lưu thông tin hợp đồng" style="rounded=1;whiteSpace=wrap;html=1;arcSize=40;fontColor=#000000;fillColor=#ffffc0;strokeColor=#ff0000;" parent="kZQ03gNKZHDd4sTlV5Zk-12" vertex="1">
          <mxGeometry x="109.5" y="640" width="120" height="40" as="geometry" />
        </mxCell>
        <mxCell id="kZQ03gNKZHDd4sTlV5Zk-11" value="" style="edgeStyle=orthogonalEdgeStyle;html=1;verticalAlign=bottom;endArrow=open;endSize=8;strokeColor=#ff0000;rounded=0;entryX=0.741;entryY=0.195;entryDx=0;entryDy=0;entryPerimeter=0;" parent="1" source="kZQ03gNKZHDd4sTlV5Zk-10" target="kZQ03gNKZHDd4sTlV5Zk-7" edge="1">
          <mxGeometry relative="1" as="geometry">
            <mxPoint x="490" y="380" as="targetPoint" />
            <Array as="points">
              <mxPoint x="280" y="360" />
              <mxPoint x="205" y="360" />
            </Array>
          </mxGeometry>
        </mxCell>
        <mxCell id="kZQ03gNKZHDd4sTlV5Zk-18" value="Nhân viên" style="swimlane;whiteSpace=wrap" parent="1" vertex="1">
          <mxGeometry x="621.5" y="90" width="228.5" height="1070" as="geometry" />
        </mxCell>
        <mxCell id="kZQ03gNKZHDd4sTlV5Zk-19" value="Kiểm tra còn phòng không?" style="rhombus;whiteSpace=wrap;html=1;fontColor=#000000;fillColor=#ffffc0;strokeColor=#ff0000;" parent="kZQ03gNKZHDd4sTlV5Zk-18" vertex="1">
          <mxGeometry x="38.5" y="400" width="105.5" height="62" as="geometry" />
        </mxCell>
        <mxCell id="kZQ03gNKZHDd4sTlV5Zk-28" value="Không" style="text;html=1;align=center;verticalAlign=middle;whiteSpace=wrap;rounded=0;" parent="kZQ03gNKZHDd4sTlV5Zk-18" vertex="1">
          <mxGeometry x="38.5" y="360" width="60" height="30" as="geometry" />
        </mxCell>
        <mxCell id="kZQ03gNKZHDd4sTlV5Zk-34" value="Làm hợp đồng" style="rounded=1;whiteSpace=wrap;html=1;arcSize=40;fontColor=#000000;fillColor=#ffffc0;strokeColor=#ff0000;" parent="kZQ03gNKZHDd4sTlV5Zk-18" vertex="1">
          <mxGeometry x="31.25" y="500" width="120" height="40" as="geometry" />
        </mxCell>
        <mxCell id="kZQ03gNKZHDd4sTlV5Zk-35" value="Còn" style="text;html=1;align=center;verticalAlign=middle;whiteSpace=wrap;rounded=0;" parent="kZQ03gNKZHDd4sTlV5Zk-18" vertex="1">
          <mxGeometry x="98.5" y="462" width="60" height="30" as="geometry" />
        </mxCell>
        <mxCell id="kZQ03gNKZHDd4sTlV5Zk-40" value="" style="edgeStyle=orthogonalEdgeStyle;html=1;verticalAlign=bottom;endArrow=open;endSize=8;strokeColor=#ff0000;rounded=0;exitX=0.5;exitY=1;exitDx=0;exitDy=0;entryX=0.501;entryY=0.283;entryDx=0;entryDy=0;entryPerimeter=0;" parent="kZQ03gNKZHDd4sTlV5Zk-18" target="kZQ03gNKZHDd4sTlV5Zk-43" edge="1">
          <mxGeometry relative="1" as="geometry">
            <mxPoint x="91.14999999999998" y="578" as="targetPoint" />
            <Array as="points">
              <mxPoint x="91" y="550" />
            </Array>
            <mxPoint x="91.14999999999998" y="540" as="sourcePoint" />
          </mxGeometry>
        </mxCell>
        <mxCell id="kZQ03gNKZHDd4sTlV5Zk-43" value="" style="shape=line;html=1;strokeWidth=6;strokeColor=#ff0000;" parent="kZQ03gNKZHDd4sTlV5Zk-18" vertex="1">
          <mxGeometry x="71.25" y="580" width="40" height="10" as="geometry" />
        </mxCell>
        <mxCell id="kZQ03gNKZHDd4sTlV5Zk-89" value="Làm thủ tục gia hạn hợp đồng" style="rounded=1;whiteSpace=wrap;html=1;arcSize=40;fontColor=#000000;fillColor=#ffffc0;strokeColor=#ff0000;" parent="kZQ03gNKZHDd4sTlV5Zk-18" vertex="1">
          <mxGeometry x="38.5" y="750" width="120" height="40" as="geometry" />
        </mxCell>
        <mxCell id="kZQ03gNKZHDd4sTlV5Zk-94" value="" style="edgeStyle=orthogonalEdgeStyle;html=1;verticalAlign=bottom;endArrow=open;endSize=8;strokeColor=#ff0000;rounded=0;exitX=0.512;exitY=1.011;exitDx=0;exitDy=0;exitPerimeter=0;entryX=0.75;entryY=0.5;entryDx=0;entryDy=0;entryPerimeter=0;" parent="kZQ03gNKZHDd4sTlV5Zk-18" target="kZQ03gNKZHDd4sTlV5Zk-92" edge="1">
          <mxGeometry relative="1" as="geometry">
            <mxPoint x="-421.5" y="850" as="targetPoint" />
            <Array as="points">
              <mxPoint x="99" y="870" />
              <mxPoint x="-417" y="870" />
            </Array>
            <mxPoint x="98.5" y="790" as="sourcePoint" />
          </mxGeometry>
        </mxCell>
        <mxCell id="kZQ03gNKZHDd4sTlV5Zk-9" value="" style="edgeStyle=orthogonalEdgeStyle;html=1;verticalAlign=bottom;endArrow=open;endSize=8;strokeColor=#ff0000;rounded=0;entryX=0;entryY=0.5;entryDx=0;entryDy=0;" parent="1" source="kZQ03gNKZHDd4sTlV5Zk-7" target="kZQ03gNKZHDd4sTlV5Zk-19" edge="1">
          <mxGeometry relative="1" as="geometry">
            <mxPoint x="563.75" y="473" as="targetPoint" />
            <Array as="points">
              <mxPoint x="260" y="521" />
            </Array>
          </mxGeometry>
        </mxCell>
        <mxCell id="kZQ03gNKZHDd4sTlV5Zk-27" value="" style="edgeStyle=orthogonalEdgeStyle;html=1;verticalAlign=bottom;endArrow=open;endSize=8;strokeColor=#ff0000;rounded=0;exitX=0.5;exitY=0;exitDx=0;exitDy=0;entryX=0.455;entryY=-0.035;entryDx=0;entryDy=0;entryPerimeter=0;" parent="1" source="kZQ03gNKZHDd4sTlV5Zk-19" target="kZQ03gNKZHDd4sTlV5Zk-33" edge="1">
          <mxGeometry relative="1" as="geometry">
            <mxPoint x="175" y="665.0069444444443" as="targetPoint" />
            <Array as="points">
              <mxPoint x="175" y="490" />
            </Array>
            <mxPoint x="780" y="560" as="sourcePoint" />
          </mxGeometry>
        </mxCell>
        <mxCell id="kZQ03gNKZHDd4sTlV5Zk-39" value="" style="edgeStyle=orthogonalEdgeStyle;html=1;verticalAlign=bottom;endArrow=open;endSize=8;strokeColor=#ff0000;rounded=0;exitX=0.25;exitY=0.5;exitDx=0;exitDy=0;exitPerimeter=0;entryX=1;entryY=0.5;entryDx=0;entryDy=0;" parent="1" source="kZQ03gNKZHDd4sTlV5Zk-43" target="kZQ03gNKZHDd4sTlV5Zk-36" edge="1">
          <mxGeometry relative="1" as="geometry">
            <mxPoint x="570" y="628" as="targetPoint" />
            <Array as="points">
              <mxPoint x="703" y="690" />
            </Array>
            <mxPoint x="570" y="590" as="sourcePoint" />
          </mxGeometry>
        </mxCell>
        <mxCell id="kZQ03gNKZHDd4sTlV5Zk-44" value="" style="edgeStyle=orthogonalEdgeStyle;html=1;verticalAlign=bottom;endArrow=open;endSize=8;strokeColor=#ff0000;rounded=0;entryX=1;entryY=0.5;entryDx=0;entryDy=0;" parent="1" source="kZQ03gNKZHDd4sTlV5Zk-43" target="kZQ03gNKZHDd4sTlV5Zk-37" edge="1">
          <mxGeometry relative="1" as="geometry">
            <mxPoint x="712.75" y="720" as="targetPoint" />
            <Array as="points">
              <mxPoint x="713" y="750" />
            </Array>
          </mxGeometry>
        </mxCell>
        <mxCell id="kZQ03gNKZHDd4sTlV5Zk-46" value="" style="edgeStyle=orthogonalEdgeStyle;html=1;verticalAlign=bottom;endArrow=open;endSize=8;strokeColor=#ff0000;rounded=0;entryX=1;entryY=0.5;entryDx=0;entryDy=0;exitX=0.75;exitY=0.5;exitDx=0;exitDy=0;exitPerimeter=0;" parent="1" source="kZQ03gNKZHDd4sTlV5Zk-43" target="kZQ03gNKZHDd4sTlV5Zk-45" edge="1">
          <mxGeometry relative="1" as="geometry">
            <mxPoint x="269.85" y="763" as="targetPoint" />
            <Array as="points">
              <mxPoint x="723" y="720" />
              <mxPoint x="270" y="720" />
              <mxPoint x="270" y="750" />
            </Array>
            <mxPoint x="720" y="700" as="sourcePoint" />
          </mxGeometry>
        </mxCell>
        <mxCell id="kZQ03gNKZHDd4sTlV5Zk-48" value="" style="edgeStyle=orthogonalEdgeStyle;html=1;verticalAlign=bottom;endArrow=open;endSize=8;strokeColor=#ff0000;rounded=0;exitX=1;exitY=0.5;exitDx=0;exitDy=0;" parent="1" source="kZQ03gNKZHDd4sTlV5Zk-47" edge="1">
          <mxGeometry relative="1" as="geometry">
            <mxPoint x="660" y="860" as="targetPoint" />
            <Array as="points">
              <mxPoint x="233" y="860" />
            </Array>
            <mxPoint x="280" y="860" as="sourcePoint" />
          </mxGeometry>
        </mxCell>
        <mxCell id="kZQ03gNKZHDd4sTlV5Zk-95" value="" style="edgeStyle=orthogonalEdgeStyle;html=1;verticalAlign=bottom;endArrow=open;endSize=8;strokeColor=#ff0000;rounded=0;exitX=0.521;exitY=0.544;exitDx=0;exitDy=0;exitPerimeter=0;" parent="1" source="kZQ03gNKZHDd4sTlV5Zk-92" edge="1">
          <mxGeometry relative="1" as="geometry">
            <mxPoint x="179" y="1070" as="targetPoint" />
            <Array as="points">
              <mxPoint x="181" y="1020" />
              <mxPoint x="179" y="1020" />
            </Array>
            <mxPoint x="180" y="1020" as="sourcePoint" />
          </mxGeometry>
        </mxCell>
      </root>
    </mxGraphModel>
  </diagram>
</mxfile>
